<?xml version="1.0" encoding="utf-8"?>
<svg id="Capa_1" data-name="Capa 1" viewBox="-0.614 0 750.414 267.905" xmlns="http://www.w3.org/2000/svg">
  <defs>
    <style>.cls-1{fill:#fff;}.cls-2{fill:#fdfdfd;}.cls-3{fill:#fffffe;}.cls-4{fill:#d11918;}</style>
  </defs>
  <title>logo</title>
  <path class="cls-1" d="M292.8,354.8V333.3q-25,24.4-59.1,24.4-36.2,0-61.7-27.4T146.7,265q0-38.3,26.3-65.6t63.5-27.4q37,0,63.5,27.4T326.5,265v89.8Zm.7-89.8q0-23.7-16.6-40.9t-39.7-17.2q-23.1,0-39.7,17.2A56.8,56.8,0,0,0,181,265q0,24,16.5,41.1t39.7,17q23.2,0,39.7-17A57,57,0,0,0,293.5,265Z" transform="translate(-48.8 -116.7)"/>
  <path class="cls-2" d="M531.9,264.9q0,38.2-26.5,65.6t-63.3,27.1q-37.2,0-63.5-27.1t-26.3-65.6V116.7H386v79.9q24.8-24.7,58.9-24.7,36,0,61.5,27.6T531.9,264.9Zm-34.1.1q0-23.7-16.6-40.9t-39.5-17.2q-23.1,0-39.7,17.2A56.8,56.8,0,0,0,385.5,265q0,24,16.5,41.1t39.7,17q23,0,39.5-17A57,57,0,0,0,497.8,265Z" transform="translate(-48.8 -116.7)"/>
  <path class="cls-1" d="M707.8,329.7q-25.7,27.8-63.7,27.8t-63.9-26.8q-26.3-26.8-26.3-65.6t26.2-65.9q26.2-27.4,63.6-27.4a85.5,85.5,0,0,1,49.9,15.7q22.6,15.7,33.8,42.1l-119,80.1q16,13.3,35.9,13.3,24,0,39.7-17.7t16-42.8h34.1Q733.7,301.8,707.8,329.7ZM643.6,206.9q-23.4,0-39.7,17.2t-16.3,41.2a55.6,55.6,0,0,0,2.3,15l89.6-60.1Q663.4,206.9,643.6,206.9Z" transform="translate(-48.8 -116.7)"/>
  <path class="cls-1" d="M764.8,356.8V118.7h33.7V356.8Z" transform="translate(-48.8 -116.7)"/>
  <path class="cls-3" d="M116.8,321.9q-20.1,0-27.2-7.8t-7.1-27.5V118.7H48.8V303.6a52.5,52.5,0,0,0,14.9,37.6q14.9,15.7,35.9,15.6h34.5V321.9Z" transform="translate(-48.8 -116.7)"/>
</svg>