<?xml version="1.0" encoding="utf-8"?>
<!-- Generator: Adobe Illustrator 21.0.0, SVG Export Plug-In . SVG Version: 6.00 Build 0)  -->
<svg version="1.1" xmlns="http://www.w3.org/2000/svg" xmlns:xlink="http://www.w3.org/1999/xlink" x="0px" y="0px"
	 viewBox="0 0 960 560" style="enable-background:new 0 0 960 560;" xml:space="preserve">
<style type="text/css">
	.st0{display:none;}
	.st1{display:inline;fill:#202020;}
	.st2{fill:#1F1F1F;stroke:#010202;stroke-miterlimit:10;}
	.st3{display:none;fill:none;stroke:#FFFFFF;stroke-width:3;stroke-miterlimit:10;}
	.st4{fill:#D11918;}
</style>
<g id="Capa_2" class="st0">
	<rect x="-157.4" y="-64.9" class="st1" width="1187.9" height="714"/>
</g>
<g id="Capa_1">
	<path class="st2" d="M292.8,354.8v-21.5c-16.7,16.2-36.4,24.4-59.1,24.4c-24.1,0-44.7-9.1-61.7-27.4
		c-16.9-18.2-25.3-39.9-25.3-65.3c0-25.6,8.8-47.4,26.3-65.6c17.7-18.3,38.8-27.4,63.5-27.4s45.8,9.1,63.5,27.4
		c17.7,18.3,26.5,40.2,26.5,65.6v89.8H292.8z M293.5,265c0-15.8-5.5-29.4-16.6-40.9c-11.1-11.5-24.3-17.2-39.7-17.2
		c-15.4,0-28.6,5.7-39.7,17.2c-11,11.4-16.5,25-16.5,40.9c0,16,5.5,29.7,16.5,41.1c11,11.4,24.2,17,39.7,17s28.7-5.7,39.7-17
		C287.9,294.6,293.5,280.9,293.5,265z"/>
	<path class="st2" d="M531.9,264.9c0,25.4-8.8,47.3-26.5,65.6c-17.7,18.1-38.8,27.1-63.3,27.1c-24.8,0-45.9-9-63.5-27.1
		c-17.5-18.2-26.3-40-26.3-65.6V116.7H386v79.9c16.6-16.5,36.2-24.7,58.9-24.7c24,0,44.5,9.2,61.5,27.6
		C523.4,218,531.9,239.8,531.9,264.9z M497.8,265c0-15.8-5.5-29.4-16.6-40.9c-11.1-11.5-24.3-17.2-39.5-17.2
		c-15.4,0-28.6,5.7-39.7,17.2c-11,11.4-16.5,25-16.5,40.9c0,16,5.5,29.7,16.5,41.1c11,11.4,24.2,17,39.7,17c15.4,0,28.5-5.7,39.5-17
		C492.2,294.6,497.8,280.9,497.8,265z"/>
	<path class="st2" d="M707.8,329.7c-17.1,18.5-38.4,27.8-63.7,27.8c-25,0-46.3-8.9-63.9-26.8c-17.6-17.8-26.3-39.7-26.3-65.6
		c0-25.7,8.7-47.7,26.2-65.9c17.5-18.3,38.6-27.4,63.6-27.4c18.2,0,34.8,5.2,49.9,15.7c15,10.5,26.3,24.5,33.8,42.1l-119,80.1
		c10.6,8.9,22.6,13.3,35.9,13.3c16,0,29.3-5.9,39.7-17.7c10.5-11.9,15.9-26.2,16-42.8h34.1C733.8,288.6,725.1,311.1,707.8,329.7z
		 M643.6,206.9c-15.6,0-28.8,5.7-39.7,17.2c-10.9,11.5-16.3,25.2-16.3,41.2c0,4.5,0.8,9.5,2.3,15l89.6-60.1
		C668.8,211.3,656.8,206.9,643.6,206.9z"/>
	<path class="st2" d="M764.8,356.8V118.7h33.7v238.1H764.8z"/>
	<line class="st3" x1="48.3" y1="394.3" x2="798.4" y2="394.3"/>
	<path class="st2" d="M116.8,321.9c-13.4,0-22.4-2.6-27.2-7.8c-4.7-5.2-7.1-14.4-7.1-27.5V118.7H48.8v184.9c0,14.6,5,27.2,14.9,37.6
		c9.9,10.4,21.9,15.6,35.9,15.6h34.5v-34.9H116.8z"/>
	<g>
	
		
	</g>
</g>
</svg>
