<svg id="Capa_1" data-name="Capa 1" xmlns="http://www.w3.org/2000/svg" viewBox="0 0 616.6 263"><defs><style>.cls-1{fill:#fff;}.cls-2{fill:#fdfdfd;}.cls-3{fill:none;stroke:#fff;stroke-miterlimit:10;stroke-width:3px;}.cls-4{fill:#fffffe;}.cls-5{fill:#d11918;}</style></defs><title>Logo final</title><path class="cls-1" d="M382.9,305.8V288.7q-20.6,19.4-48.5,19.4-29.7,0-50.7-21.8t-20.8-51.8q0-30.4,21.6-52.1t52.2-21.8q30.4,0,52.2,21.8t21.8,52.1v71.3Zm.6-71.3q0-18.8-13.7-32.5t-32.6-13.7q-18.9,0-32.6,13.7a46.1,46.1,0,1,0,65.2,65.1Q383.4,253.4,383.4,234.4Z" transform="translate(-181.9 -116.7)"/><path class="cls-2" d="M579.4,234.4q0,30.3-21.8,52.1t-52,21.5q-30.6,0-52.2-21.5t-21.6-52.1V116.7h27.7v63.5q20.4-19.6,48.4-19.6,29.6,0,50.6,21.9T579.4,234.4Zm-28.1.1q0-18.8-13.7-32.5t-32.5-13.7q-18.9,0-32.6,13.7a46.1,46.1,0,0,0,32.6,78.6,44.3,44.3,0,0,0,32.5-13.5Q551.3,253.4,551.3,234.4Z" transform="translate(-181.9 -116.7)"/><path class="cls-1" d="M724,285.9q-21.1,22.1-52.4,22.1t-52.5-21.2q-21.7-21.2-21.7-52.1T619,182.2q21.5-21.8,52.2-21.8a72,72,0,0,1,41,12.4A76.3,76.3,0,0,1,740,206.3l-97.8,63.6a45.9,45.9,0,0,0,29.5,10.6q19.8,0,32.6-14.1a49.1,49.1,0,0,0,13.1-34h28Q745.2,263.7,724,285.9Zm-52.8-97.6A43.9,43.9,0,0,0,638.6,202a45.1,45.1,0,0,0-13.4,32.7,42.8,42.8,0,0,0,1.9,11.9l73.6-47.8A46.2,46.2,0,0,0,671.2,188.3Z" transform="translate(-181.9 -116.7)"/><path class="cls-1" d="M770.9,307.4V118.3h27.7V307.4Z" transform="translate(-181.9 -116.7)"/><line class="cls-3" y1="210.5" x2="616.5" y2="210.5"/><path class="cls-4" d="M238.2,279.7q-16.5,0-22.3-6.2T210,251.7V118.3H182.3V265.1A41,41,0,0,0,194.6,295a39.9,39.9,0,0,0,29.5,12.4h28.4V279.7Z" transform="translate(-181.9 -116.7)"/><path class="cls-5" d="M215.9,378.6H182.4V344.9h33.5v3.6H189.9v10h26.1V362H189.9v13h26.1Z" transform="translate(-181.9 -116.7)"/><path class="cls-5" d="M322.3,344.9l-25.6,34.7h-2.2L269,344.9h8.5l18.4,27.6,18.2-27.6Z" transform="translate(-181.9 -116.7)"/><path class="cls-5" d="M409.1,378.6H375.6V344.9h33.5v3.6H383v10h26.1V362H383v13h26.1Z" transform="translate(-181.9 -116.7)"/><path class="cls-5" d="M517.3,379.3h-1.5l-45-27.1v26.3H464V344.1h1.7l44.6,27.1V344.9h7.1Z" transform="translate(-181.9 -116.7)"/><path class="cls-5" d="M607.6,348.5H589.9v30.1h-7.7V348.5H564.5v-3.6h43.1Z" transform="translate(-181.9 -116.7)"/><path class="cls-5" d="M716.8,361.5q0,7.5-9.6,12.7T684,379.5q-13.8,0-23.8-5.1t-10-12.5q0-7.5,9.6-12.7t23.3-5.3q13.8,0,23.8,5.1T716.8,361.5Zm-7.7-.1q0-5.8-7.7-9.8t-18.4-4q-10.6,0-17.9,4.2t-7.3,10.1q0,5.8,7.6,9.8t18.4,4q10.6,0,17.9-4.2T709.2,361.4Z" transform="translate(-181.9 -116.7)"/><path class="cls-5" d="M797.4,350.8l-6.6,1.7q-.9-2.1-4.4-3.4a21.9,21.9,0,0,0-7.7-1.3,20,20,0,0,0-5.4.7,8.6,8.6,0,0,0-3.8,2.2,4,4,0,0,0-1,2.5q0,3.1,5.2,4.6l15.8,3.2a15.9,15.9,0,0,1,6.6,3.6,6.7,6.7,0,0,1,2.3,4.8,6.5,6.5,0,0,1-1.6,4.2A13.8,13.8,0,0,1,792,377a36.4,36.4,0,0,1-13.1,2.2,38,38,0,0,1-11.9-1.8,14,14,0,0,1-4.5-2.7,14.9,14.9,0,0,1-2.8-3.8l6.7-1.9q0,2.9,3.7,4.8a19.2,19.2,0,0,0,8.8,1.9,23,23,0,0,0,4-.3,18.2,18.2,0,0,0,3.8-1.1,7.7,7.7,0,0,0,3-2.1,4.2,4.2,0,0,0,1.1-2.8,3.5,3.5,0,0,0-1.8-3.2,17.7,17.7,0,0,0-2.8-1.4l-4.2-1.1-10.7-2.1a22.7,22.7,0,0,1-7.7-3.3q-2.9-2.1-2.9-4.8a9.3,9.3,0,0,1,.6-2.5q.6-1.8,4-3.8a17.7,17.7,0,0,1,7.3-2.4,65.5,65.5,0,0,1,7-.4h2.1l3.9.4a21.5,21.5,0,0,1,6.7,2A10.7,10.7,0,0,1,797.4,350.8Z" transform="translate(-181.9 -116.7)"/></svg>