<svg id="Capa_1" data-name="Capa 1" xmlns="http://www.w3.org/2000/svg" viewBox="0 0 1385.2 241"><defs><style>.cls-1{fill:#fff;}.cls-2{fill:#fdfdfc;}.cls-3{fill:#fffffd;}.cls-4{fill:#d11515;}</style></defs><title>logoCostado</title><path class="cls-1" d="M263.8,492.8V471.3q-25,24.4-59.1,24.4-36.2,0-61.7-27.4T117.7,403q0-38.3,26.3-65.6t63.5-27.4q37,0,63.5,27.4T297.5,403v89.8Zm.7-89.8q0-23.7-16.6-40.9t-39.7-17.2q-23.1,0-39.7,17.2A56.8,56.8,0,0,0,152,403q0,24,16.5,41.1t39.7,17q23.2,0,39.7-17A57,57,0,0,0,264.5,403Z" transform="translate(-19.8 -254.7)"/><path class="cls-2" d="M502.9,402.9q0,38.2-26.5,65.6t-63.3,27.1q-37.2,0-63.5-27.1t-26.3-65.6V254.7H357v79.9q24.8-24.7,58.9-24.7,36,0,61.5,27.6T502.9,402.9Zm-34.1.1q0-23.7-16.6-40.9t-39.5-17.2q-23.1,0-39.7,17.2A56.8,56.8,0,0,0,356.5,403q0,24,16.5,41.1t39.7,17q23,0,39.5-17A57,57,0,0,0,468.8,403Z" transform="translate(-19.8 -254.7)"/><path class="cls-1" d="M678.8,467.7q-25.7,27.8-63.7,27.8t-63.9-26.8q-26.3-26.8-26.3-65.6t26.2-65.9q26.2-27.4,63.6-27.4a85.5,85.5,0,0,1,49.9,15.7q22.6,15.7,33.8,42.1l-119,80.1q16,13.3,35.9,13.3,24,0,39.7-17.7t16-42.8h34.1Q704.7,439.8,678.8,467.7ZM614.6,344.9q-23.4,0-39.7,17.2t-16.3,41.2a55.6,55.6,0,0,0,2.3,15l89.6-60.1Q634.4,344.9,614.6,344.9Z" transform="translate(-19.8 -254.7)"/><path class="cls-1" d="M735.8,494.8V256.7h33.7V494.8Z" transform="translate(-19.8 -254.7)"/><path class="cls-3" d="M87.8,459.9q-20.1,0-27.2-7.8t-7.1-27.5V256.7H19.8V441.6a52.5,52.5,0,0,0,14.9,37.6q14.9,15.7,35.9,15.6h34.5V459.9Z" transform="translate(-19.8 -254.7)"/><path class="cls-4" d="M860.2,448.1H818.2v34.1h46.9v10.2H804.2V397.9h58.4v10.2H818.2V438h42.1Z" transform="translate(-19.8 -254.7)"/><path class="cls-4" d="M908.4,492.4l-35.3-94.6h15.1L905,444.5c4.7,12.8,8.7,24.3,11.6,35.4h.3c3.1-10.9,7.5-22.9,12.4-35.2l18.3-46.7h14.9l-38.7,94.6Z" transform="translate(-19.8 -254.7)"/><path class="cls-4" d="M1030.3,448.1H988.2v34.1h46.9v10.2H974.2V397.9h58.4v10.2H988.2V438h42.1Z" transform="translate(-19.8 -254.7)"/><path class="cls-4" d="M1053.2,492.4V397.9h15.3l34.7,47.8a259.6,259.6,0,0,1,19.4,30.7h.3a367.8,367.8,0,0,1-1.6-38.9V397.9h13.2v94.6h-14.1l-34.4-48c-7.5-10.5-14.8-21.3-20.2-31.6h-.5c.8,11.9,1.1,23.3,1.1,39v40.4Z" transform="translate(-19.8 -254.7)"/><path class="cls-4" d="M1179.4,408.3h-32.9V397.9h80.1v10.4h-33.1v84.2h-14.1Z" transform="translate(-19.8 -254.7)"/><path class="cls-4" d="M1326.8,444.2c0,32.6-22.6,49.8-50.2,49.8s-48.6-19.4-48.6-48,21.4-49.7,50.2-49.7S1326.8,416.1,1326.8,444.2Zm-84,1.5c0,20.2,12.5,38.3,34.5,38.3s34.7-17.8,34.7-39.3c0-18.8-11.2-38.4-34.5-38.4S1242.8,424.9,1242.8,445.7Z" transform="translate(-19.8 -254.7)"/><path class="cls-4" d="M1343,477.6a54.9,54.9,0,0,0,25,6.2c14.3,0,22.6-6.6,22.6-16.1s-5.8-13.9-20.4-18.8c-17.7-5.5-28.6-13.5-28.6-26.8s14-25.7,35-25.7c11.1,0,19.1,2.2,23.9,4.6l-3.9,10a48,48,0,0,0-20.5-4.5c-14.8,0-20.4,7.7-20.4,14.2,0,8.8,6.6,13.2,21.5,18.2,18.3,6.2,27.6,13.9,27.6,27.8s-12.4,27.2-37.9,27.2c-10.4,0-21.8-2.7-27.6-6Z" transform="translate(-19.8 -254.7)"/></svg>