<svg id="Capa_1" data-name="Capa 1" xmlns="http://www.w3.org/2000/svg" viewBox="0 0 616.62 263"><defs><style>.cls-1{fill:#fff;}.cls-2{fill:#fdfdfd;}.cls-3{fill:none;stroke:#fff;stroke-miterlimit:10;stroke-width:3px;}.cls-4{fill:#fffffe;}.cls-5{fill:#d11918;}</style></defs><title>Logo final</title><path class="cls-1" d="M382.85,305.77V288.72q-20.55,19.35-48.53,19.35-29.74,0-50.7-21.79T262.8,234.45q0-30.45,21.63-52.1t52.18-21.79q30.42,0,52.18,21.79t21.77,52.1v71.32Zm.58-71.33q0-18.81-13.67-32.48t-32.61-13.67q-18.95,0-32.61,13.67a46.07,46.07,0,1,0,65.23,65.09Q383.43,253.39,383.43,234.44Z" transform="translate(-181.95 -116.66)"/><path class="cls-2" d="M579.39,234.39q0,30.31-21.77,52.1Q535.85,308,505.57,308q-30.55,0-52.18-21.52t-21.63-52.1V116.66h27.71v63.47q20.41-19.62,48.4-19.62,29.61,0,50.56,21.92T579.39,234.39Zm-28.06.05q0-18.81-13.67-32.48t-32.48-13.67q-18.95,0-32.61,13.67a46.08,46.08,0,0,0,32.61,78.62,44.29,44.29,0,0,0,32.48-13.53Q551.33,253.39,551.33,234.44Z" transform="translate(-181.95 -116.66)"/><path class="cls-1" d="M724,285.86q-21.11,22.06-52.37,22.06-30.85,0-52.51-21.25t-21.65-52.1q0-30.58,21.52-52.37t52.24-21.79a72,72,0,0,1,41,12.45A76.29,76.29,0,0,1,740,206.29l-97.84,63.6a45.87,45.87,0,0,0,29.5,10.56q19.76,0,32.61-14.07a49.13,49.13,0,0,0,13.13-34h28Q745.25,263.67,724,285.86Zm-52.78-97.56A44,44,0,0,0,638.61,202a45.13,45.13,0,0,0-13.4,32.75,42.78,42.78,0,0,0,1.89,11.91l73.62-47.77A46.23,46.23,0,0,0,671.23,188.29Z" transform="translate(-181.95 -116.66)"/><path class="cls-1" d="M770.85,307.4V118.29h27.71V307.4Z" transform="translate(-181.95 -116.66)"/><line class="cls-3" y1="210.5" x2="616.5" y2="210.5"/><path class="cls-4" d="M238.19,279.68q-16.5,0-22.33-6.21T210,251.65V118.29H182.33V265.11A41,41,0,0,0,194.59,295a39.9,39.9,0,0,0,29.47,12.43h28.37V279.68Z" transform="translate(-181.95 -116.66)"/><path class="cls-5" d="M215.92,378.61H182.45v-33.7h33.47v3.64H189.86v10h26.06V362H189.86v13h26.06Z" transform="translate(-181.95 -116.66)"/><path class="cls-5" d="M322.33,344.91l-25.65,34.75h-2.25L269,344.91h8.49l18.4,27.64,18.24-27.64Z" transform="translate(-181.95 -116.66)"/><path class="cls-5" d="M409.1,378.61H375.62v-33.7H409.1v3.64H383v10H409.1V362H383v13H409.1Z" transform="translate(-181.95 -116.66)"/><path class="cls-5" d="M517.34,379.34h-1.5l-45-27.05v26.32H464V344.09h1.74l44.56,27.08V344.91h7.08Z" transform="translate(-181.95 -116.66)"/><path class="cls-5" d="M607.6,348.46H589.87v30.15h-7.66V348.46H564.47v-3.55H607.6Z" transform="translate(-181.95 -116.66)"/><path class="cls-5" d="M716.85,361.51q0,7.48-9.62,12.75T684,379.52q-13.82,0-23.77-5.08t-10-12.47q0-7.48,9.62-12.74T683.12,344q13.82,0,23.77,5.08T716.85,361.51Zm-7.66-.09q0-5.79-7.66-9.81t-18.4-4q-10.57,0-17.9,4.2t-7.33,10.08q0,5.79,7.62,9.78t18.44,4q10.57,0,17.9-4.2T709.19,361.42Z" transform="translate(-181.95 -116.66)"/><path class="cls-5" d="M797.37,350.78l-6.58,1.69q-.92-2.09-4.41-3.39a21.85,21.85,0,0,0-7.66-1.3,20,20,0,0,0-5.41.66,8.59,8.59,0,0,0-3.83,2.16,4,4,0,0,0-1,2.51q0,3.05,5.25,4.6l15.82,3.19a15.92,15.92,0,0,1,6.62,3.57,6.68,6.68,0,0,1,2.29,4.79,6.55,6.55,0,0,1-1.62,4.18A13.78,13.78,0,0,1,792,377a36.4,36.4,0,0,1-13.07,2.23A38,38,0,0,1,767,377.43a14,14,0,0,1-4.46-2.66,14.93,14.93,0,0,1-2.79-3.85l6.75-1.87q0,2.87,3.75,4.78a19.18,19.18,0,0,0,8.83,1.91,23,23,0,0,0,4-.34,18.22,18.22,0,0,0,3.83-1.11,7.71,7.71,0,0,0,3-2.09,4.21,4.21,0,0,0,1.12-2.77,3.47,3.47,0,0,0-1.79-3.22,17.74,17.74,0,0,0-2.83-1.41q-1-.36-4.2-1.13l-10.66-2.05a22.66,22.66,0,0,1-7.66-3.35q-2.92-2.12-2.91-4.8a9.32,9.32,0,0,1,.62-2.48q.63-1.8,4-3.8a17.69,17.69,0,0,1,7.29-2.44,65.5,65.5,0,0,1,7-.43q1.33,0,2.08,0t3.87.39a21.54,21.54,0,0,1,6.66,2A10.71,10.71,0,0,1,797.37,350.78Z" transform="translate(-181.95 -116.66)"/></svg>