<?xml version="1.0" encoding="utf-8"?>
<!-- Generator: Adobe Illustrator 21.0.0, SVG Export Plug-In . SVG Version: 6.00 Build 0)  -->
<svg version="1.1" xmlns="http://www.w3.org/2000/svg" xmlns:xlink="http://www.w3.org/1999/xlink" x="0px" y="0px"
	 viewBox="0 0 960 560" style="enable-background:new 0 0 960 560;" xml:space="preserve">
<style type="text/css">
	.st0{display:none;}
	.st1{display:inline;fill:#202020;}
	.st2{fill:#1F1F1F;stroke:#010202;stroke-miterlimit:10;}
	.st3{display:none;fill:none;stroke:#FFFFFF;stroke-width:3;stroke-miterlimit:10;}
	.st4{fill:#D11918;}
</style>
<g id="Capa_2" class="st0">
	<rect x="-157.4" y="-64.9" class="st1" width="1187.9" height="714"/>
</g>
<g id="Capa_1">
	<path class="st2" d="M292.8,354.8v-21.5c-16.7,16.2-36.4,24.4-59.1,24.4c-24.1,0-44.7-9.1-61.7-27.4
		c-16.9-18.2-25.3-39.9-25.3-65.3c0-25.6,8.8-47.4,26.3-65.6c17.7-18.3,38.8-27.4,63.5-27.4s45.8,9.1,63.5,27.4
		c17.7,18.3,26.5,40.2,26.5,65.6v89.8H292.8z M293.5,265c0-15.8-5.5-29.4-16.6-40.9c-11.1-11.5-24.3-17.2-39.7-17.2
		c-15.4,0-28.6,5.7-39.7,17.2c-11,11.4-16.5,25-16.5,40.9c0,16,5.5,29.7,16.5,41.1c11,11.4,24.2,17,39.7,17s28.7-5.7,39.7-17
		C287.9,294.6,293.5,280.9,293.5,265z"/>
	<path class="st2" d="M531.9,264.9c0,25.4-8.8,47.3-26.5,65.6c-17.7,18.1-38.8,27.1-63.3,27.1c-24.8,0-45.9-9-63.5-27.1
		c-17.5-18.2-26.3-40-26.3-65.6V116.7H386v79.9c16.6-16.5,36.2-24.7,58.9-24.7c24,0,44.5,9.2,61.5,27.6
		C523.4,218,531.9,239.8,531.9,264.9z M497.8,265c0-15.8-5.5-29.4-16.6-40.9c-11.1-11.5-24.3-17.2-39.5-17.2
		c-15.4,0-28.6,5.7-39.7,17.2c-11,11.4-16.5,25-16.5,40.9c0,16,5.5,29.7,16.5,41.1c11,11.4,24.2,17,39.7,17c15.4,0,28.5-5.7,39.5-17
		C492.2,294.6,497.8,280.9,497.8,265z"/>
	<path class="st2" d="M707.8,329.7c-17.1,18.5-38.4,27.8-63.7,27.8c-25,0-46.3-8.9-63.9-26.8c-17.6-17.8-26.3-39.7-26.3-65.6
		c0-25.7,8.7-47.7,26.2-65.9c17.5-18.3,38.6-27.4,63.6-27.4c18.2,0,34.8,5.2,49.9,15.7c15,10.5,26.3,24.5,33.8,42.1l-119,80.1
		c10.6,8.9,22.6,13.3,35.9,13.3c16,0,29.3-5.9,39.7-17.7c10.5-11.9,15.9-26.2,16-42.8h34.1C733.8,288.6,725.1,311.1,707.8,329.7z
		 M643.6,206.9c-15.6,0-28.8,5.7-39.7,17.2c-10.9,11.5-16.3,25.2-16.3,41.2c0,4.5,0.8,9.5,2.3,15l89.6-60.1
		C668.8,211.3,656.8,206.9,643.6,206.9z"/>
	<path class="st2" d="M764.8,356.8V118.7h33.7v238.1H764.8z"/>
	<line class="st3" x1="48.3" y1="394.3" x2="798.4" y2="394.3"/>
	<path class="st2" d="M116.8,321.9c-13.4,0-22.4-2.6-27.2-7.8c-4.7-5.2-7.1-14.4-7.1-27.5V118.7H48.8v184.9c0,14.6,5,27.2,14.9,37.6
		c9.9,10.4,21.9,15.6,35.9,15.6h34.5v-34.9H116.8z"/>
	<g>
		<path class="st4" d="M119.9,437.3H82.5v-42.4h37.5v4.6H90.8V412h29.2v4.4H90.8v16.3h29.2V437.3z"/>
		<path class="st4" d="M239.1,394.8l-28.7,43.8h-2.5l-28.5-43.8h9.5l20.6,34.8l20.4-34.8H239.1z"/>
		<path class="st4" d="M336.3,437.3h-37.5v-42.4h37.5v4.6h-29.2V412h29.2v4.4h-29.2v16.3h29.2V437.3z"/>
		<path class="st4" d="M457.6,438.2h-1.7l-50.4-34.1v33.1h-7.7v-43.5l1.9,0l49.9,34.1v-33.1h7.9V438.2z"/>
		<path class="st4" d="M558.7,399.3h-19.9v38h-8.6v-38h-19.9v-4.5h48.3V399.3z"/>
		<path class="st4" d="M681,415.7c0,6.3-3.6,11.6-10.8,16c-7.2,4.4-15.9,6.6-26.1,6.6c-10.3,0-19.2-2.1-26.6-6.4
			c-7.4-4.3-11.1-9.5-11.1-15.7c0-6.3,3.6-11.6,10.8-16s15.9-6.6,26.1-6.6c10.3,0,19.2,2.1,26.6,6.4
			C677.3,404.3,681,409.5,681,415.7z M672.5,415.6c0-4.9-2.9-9-8.6-12.3c-5.7-3.4-12.6-5.1-20.6-5.1c-7.9,0-14.6,1.8-20.1,5.3
			c-5.5,3.5-8.2,7.8-8.2,12.7c0,4.9,2.8,9,8.5,12.3c5.7,3.4,12.6,5,20.7,5c7.9,0,14.6-1.8,20.1-5.3
			C669.7,424.7,672.5,420.5,672.5,415.6z"/>
		<path class="st4" d="M771.2,402.2l-7.4,2.1c-0.7-1.8-2.3-3.2-4.9-4.3c-2.6-1.1-5.5-1.6-8.6-1.6c-2.3,0-4.3,0.3-6.1,0.8
			c-1.7,0.6-3.2,1.5-4.3,2.7c-0.7,1-1.1,2.1-1.1,3.2c0,2.6,2,4.5,5.9,5.8l17.7,4c3.2,1.1,5.7,2.6,7.4,4.5c1.7,1.9,2.6,3.9,2.6,6
			c0,1.8-0.6,3.6-1.8,5.3c-1.2,1.7-3,3.2-5.5,4.5c-4.4,1.9-9.2,2.8-14.6,2.8c-4.8,0-9.3-0.7-13.3-2.2c-2.2-1-3.8-2.1-5-3.4
			c-1.2-1.2-2.2-2.9-3.1-4.8l7.6-2.4c0,2.4,1.4,4.4,4.2,6c2.8,1.6,6.1,2.4,9.9,2.4c1.5,0,3-0.1,4.4-0.4c1.5-0.3,2.9-0.8,4.3-1.4
			c1.4-0.6,2.5-1.5,3.4-2.6c0.8-1.1,1.3-2.3,1.3-3.5c0-1.8-0.7-3.2-2-4.1c-1.3-0.9-2.4-1.5-3.2-1.8c-0.8-0.3-2.3-0.8-4.7-1.4
			l-11.9-2.6c-3.5-1-6.4-2.4-8.6-4.2c-2.2-1.8-3.3-3.8-3.3-6c0-0.6,0.2-1.6,0.7-3.1c0.5-1.5,1.9-3.1,4.4-4.8
			c2.5-1.7,5.2-2.7,8.2-3.1c3-0.4,5.6-0.5,7.9-0.5c1,0,1.8,0,2.3,0.1c0.6,0,2,0.2,4.3,0.5c2.3,0.3,4.8,1.1,7.5,2.5
			C768.3,398.5,770.2,400.2,771.2,402.2z"/>
	</g>
</g>
</svg>
