<?xml version="1.0" encoding="utf-8"?>
<!-- Generator: Adobe Illustrator 21.0.0, SVG Export Plug-In . SVG Version: 6.00 Build 0)  -->
<svg version="1.1" id="Capa_1" xmlns="http://www.w3.org/2000/svg" xmlns:xlink="http://www.w3.org/1999/xlink" x="0px" y="0px"
	 viewBox="0 0 1385.2 241" style="enable-background:new 0 0 1385.2 241;" xml:space="preserve">
<style type="text/css">
	.st0{fill:#FFFFFF;}
	.st1{fill:#FDFDFC;}
	.st2{fill:#FFFFFD;}
	.st3{fill:#141414;}
</style>
<title>logoCostado</title>
<path class="st0" d="M244,238.1v-21.5c-16.7,16.3-36.4,24.4-59.1,24.4c-24.1,0-44.7-9.1-61.7-27.4s-25.4-40-25.3-65.3
	c0-25.5,8.8-47.4,26.3-65.6s38.7-27.3,63.5-27.4c24.7,0,45.8,9.1,63.5,27.4s26.5,40.1,26.5,65.6v89.8H244z M244.7,148.3
	c0-15.8-5.5-29.4-16.6-40.9c-11.1-11.5-24.3-17.2-39.7-17.2c-15.4,0-28.6,5.7-39.7,17.2c-10.8,10.9-16.7,25.6-16.5,40.9
	c0,16,5.5,29.7,16.5,41.1c11,11.4,24.2,17.1,39.7,17c15.5,0,28.7-5.7,39.7-17C239,178.5,244.9,163.7,244.7,148.3z"/>
<path class="st1" d="M483.1,148.2c0,25.5-8.8,47.3-26.5,65.6c-17.7,18.3-38.8,27.3-63.3,27.1c-24.8,0-46-9-63.5-27.1
	s-26.3-39.9-26.3-65.6V0h33.7v79.9c16.5-16.5,36.2-24.7,58.9-24.7c24,0,44.5,9.2,61.5,27.6S483.1,123,483.1,148.2z M449,148.3
	c0-15.8-5.5-29.4-16.6-40.9c-11.1-11.5-24.2-17.2-39.5-17.2c-15.4,0-28.6,5.7-39.7,17.2c-10.8,10.9-16.7,25.6-16.5,40.9
	c0,16,5.5,29.7,16.5,41.1c11,11.4,24.2,17.1,39.7,17c15.3,0,28.5-5.7,39.5-17C443.3,178.5,449.2,163.7,449,148.3z"/>
<path class="st0" d="M659,213c-17.1,18.5-38.4,27.8-63.7,27.8s-46.6-8.9-63.9-26.8c-17.5-17.9-26.3-39.7-26.3-65.6
	c0-25.9,8.7-47.8,26.2-65.9c17.5-18.3,38.7-27.4,63.6-27.4c17.9-0.1,35.3,5.4,49.9,15.7c15.1,10.5,26.3,24.5,33.8,42.1l-119,80.1
	c10.7,8.9,22.6,13.3,35.9,13.3c16,0,29.2-5.9,39.7-17.7c10.5-11.8,15.8-26.1,16-42.8h34.1C685,172,676.3,194.4,659,213z M594.8,90.2
	c-15.6,0-28.8,5.7-39.7,17.2c-10.9,11.5-16.3,25.2-16.3,41.2c0.1,5.1,0.9,10.1,2.3,15l89.6-60.1C620,94.6,608,90.2,594.8,90.2z"/>
<path class="st0" d="M716,240.1V2h33.7v238.1H716z"/>
<path class="st2" d="M68,205.2c-13.4,0-22.5-2.6-27.2-7.8c-4.7-5.2-7.1-14.4-7.1-27.5V2H0v184.9c-0.3,14,5.1,27.6,14.9,37.6
	c9.9,10.5,21.9,15.7,35.9,15.6h34.5v-34.9H68z"/>
<path class="st3" d="M840.4,193.4h-42v34.1h46.9v10.2h-60.9v-94.5h58.4v10.2h-44.4v29.9h42.1L840.4,193.4z"/>
<path class="st3" d="M888.6,237.7l-35.3-94.6h15.1l16.8,46.7c4.7,12.8,8.7,24.3,11.6,35.4h0.3c3.1-10.9,7.5-22.9,12.4-35.2
	l18.3-46.7h14.9L904,237.9L888.6,237.7z"/>
<path class="st3" d="M1010.5,193.4h-42.1v34.1h46.9v10.2h-60.9v-94.5h58.4v10.2h-44.4v29.9h42.1V193.4z"/>
<path class="st3" d="M1033.4,237.7v-94.5h15.3l34.7,47.8c7.2,9.8,13.7,20,19.4,30.7h0.3c-1.2-12.9-1.8-25.9-1.6-38.9v-39.6h13.2
	v94.6h-14.1l-34.4-48c-7.5-10.5-14.8-21.3-20.2-31.6h-0.5c0.8,11.9,1.1,23.3,1.1,39v40.4L1033.4,237.7z"/>
<path class="st3" d="M1159.6,153.6h-32.9v-10.4h80.1v10.4h-33.1v84.2h-14.1V153.6z"/>
<path class="st3" d="M1307,189.5c0,32.6-22.6,49.8-50.2,49.8s-48.6-19.4-48.6-48s21.4-49.7,50.2-49.7S1307,161.4,1307,189.5z
	 M1223,191c0,20.2,12.5,38.3,34.5,38.3s34.7-17.8,34.7-39.3c0-18.8-11.2-38.4-34.5-38.4S1223,170.2,1223,191z"/>
<path class="st3" d="M1323.2,222.9c7.7,4,16.3,6.1,25,6.2c14.3,0,22.6-6.6,22.6-16.1s-5.8-13.9-20.4-18.8
	c-17.7-5.5-28.6-13.5-28.6-26.8s14-25.7,35-25.7c11.1,0,19.1,2.2,23.9,4.6l-3.9,10c-6.4-3-13.4-4.5-20.5-4.5
	c-14.8,0-20.4,7.7-20.4,14.2c0,8.8,6.6,13.2,21.5,18.2c18.3,6.2,27.6,13.9,27.6,27.8s-12.4,27.2-37.9,27.2c-10.4,0-21.8-2.7-27.6-6
	L1323.2,222.9z"/>
</svg>
