<svg id="Capa_1" data-name="Capa 1" xmlns="http://www.w3.org/2000/svg" viewBox="0 0 749.8 321.9"><defs><style>.cls-1{fill:#fff;}.cls-2{fill:#fdfdfd;}.cls-3{fill:#fffffe;}.cls-4{fill:#d11918;}</style></defs><title>logoNoLn</title><path class="cls-1" d="M292.8,354.8V333.3q-25,24.4-59.1,24.4-36.2,0-61.7-27.4T146.7,265q0-38.3,26.3-65.6t63.5-27.4q37,0,63.5,27.4T326.5,265v89.8Zm.7-89.8q0-23.7-16.6-40.9t-39.7-17.2q-23.1,0-39.7,17.2A56.8,56.8,0,0,0,181,265q0,24,16.5,41.1t39.7,17q23.2,0,39.7-17A57,57,0,0,0,293.5,265Z" transform="translate(-48.8 -116.7)"/><path class="cls-2" d="M531.9,264.9q0,38.2-26.5,65.6t-63.3,27.1q-37.2,0-63.5-27.1t-26.3-65.6V116.7H386v79.9q24.8-24.7,58.9-24.7,36,0,61.5,27.6T531.9,264.9Zm-34.1.1q0-23.7-16.6-40.9t-39.5-17.2q-23.1,0-39.7,17.2A56.8,56.8,0,0,0,385.5,265q0,24,16.5,41.1t39.7,17q23,0,39.5-17A57,57,0,0,0,497.8,265Z" transform="translate(-48.8 -116.7)"/><path class="cls-1" d="M707.8,329.7q-25.7,27.8-63.7,27.8t-63.9-26.8q-26.3-26.8-26.3-65.6t26.2-65.9q26.2-27.4,63.6-27.4a85.5,85.5,0,0,1,49.9,15.7q22.6,15.7,33.8,42.1l-119,80.1q16,13.3,35.9,13.3,24,0,39.7-17.7t16-42.8h34.1Q733.7,301.8,707.8,329.7ZM643.6,206.9q-23.4,0-39.7,17.2t-16.3,41.2a55.6,55.6,0,0,0,2.3,15l89.6-60.1Q663.4,206.9,643.6,206.9Z" transform="translate(-48.8 -116.7)"/><path class="cls-1" d="M764.8,356.8V118.7h33.7V356.8Z" transform="translate(-48.8 -116.7)"/><path class="cls-3" d="M116.8,321.9q-20.1,0-27.2-7.8t-7.1-27.5V118.7H48.8V303.6a52.5,52.5,0,0,0,14.9,37.6q14.9,15.7,35.9,15.6h34.5V321.9Z" transform="translate(-48.8 -116.7)"/><path class="cls-4" d="M119.9,437.3H82.5V394.8h37.5v4.6H90.8V412h29.2v4.4H90.8v16.3h29.2Z" transform="translate(-48.8 -116.7)"/><path class="cls-4" d="M239.1,394.8l-28.7,43.8h-2.5l-28.5-43.8h9.5l20.6,34.8,20.4-34.8Z" transform="translate(-48.8 -116.7)"/><path class="cls-4" d="M336.3,437.3H298.8V394.8h37.5v4.6H307.1V412h29.2v4.4H307.1v16.3h29.2Z" transform="translate(-48.8 -116.7)"/><path class="cls-4" d="M457.6,438.2h-1.7l-50.4-34.1v33.1h-7.7V393.8h1.9l49.9,34.1V394.8h7.9Z" transform="translate(-48.8 -116.7)"/><path class="cls-4" d="M558.7,399.3H538.8v38h-8.6v-38H510.4v-4.5h48.3Z" transform="translate(-48.8 -116.7)"/><path class="cls-4" d="M681,415.7q0,9.4-10.8,16t-26.1,6.6q-15.5,0-26.6-6.4t-11.1-15.7q0-9.4,10.8-16t26.1-6.6q15.5,0,26.6,6.4T681,415.7Zm-8.6-.1q0-7.3-8.6-12.3t-20.6-5.1q-11.8,0-20.1,5.3T615,416.2q0,7.3,8.5,12.3t20.7,5q11.8,0,20.1-5.3T672.5,415.6Z" transform="translate(-48.8 -116.7)"/><path class="cls-4" d="M771.2,402.2l-7.4,2.1q-1-2.6-4.9-4.3a22.1,22.1,0,0,0-8.6-1.6,20,20,0,0,0-6.1.8A9.4,9.4,0,0,0,740,402a5.3,5.3,0,0,0-1.1,3.2q0,3.8,5.9,5.8l17.7,4a17.4,17.4,0,0,1,7.4,4.5,8.4,8.4,0,0,1,.7,11.3,15.7,15.7,0,0,1-5.5,4.5,36.8,36.8,0,0,1-14.6,2.8,38.3,38.3,0,0,1-13.3-2.2,15.5,15.5,0,0,1-5-3.4,18.9,18.9,0,0,1-3.1-4.8l7.6-2.4q0,3.6,4.2,6a19.5,19.5,0,0,0,9.9,2.4,23,23,0,0,0,4.4-.4,18.7,18.7,0,0,0,4.3-1.4,8.7,8.7,0,0,0,3.4-2.6,5.7,5.7,0,0,0,1.3-3.5,4.5,4.5,0,0,0-2-4.1,19.1,19.1,0,0,0-3.2-1.8l-4.7-1.4-11.9-2.6a24.1,24.1,0,0,1-8.6-4.2,7.7,7.7,0,0,1-3.3-6,13,13,0,0,1,.7-3.1q.7-2.3,4.4-4.8a18.4,18.4,0,0,1,8.2-3.1,65.4,65.4,0,0,1,7.9-.5h2.3l4.3.5a22.2,22.2,0,0,1,7.5,2.5A12.5,12.5,0,0,1,771.2,402.2Z" transform="translate(-48.8 -116.7)"/></svg>