<svg id="Capa_1" data-name="Capa 1" xmlns="http://www.w3.org/2000/svg" viewBox="0 0 1887.6 246.5"><defs><style>.cls-1{fill:#fcfcfc;}.cls-2{fill:#fff;}.cls-3{fill:#fdfdfc;}.cls-4{fill:#fffffd;}</style></defs><title>somos_label_blanco</title><path class="cls-1" d="M494.7,361.8q-1.9-13.7-10.2-22.5t-21.7-9a32.4,32.4,0,0,0-23.6,9.7,30.6,30.6,0,0,0-10,23q0,21,25.8,33l47.4,21.9q25.8,17.8,25.8,53,0,28-20.2,47.6T460,538.2q-25.2,0-43.2-15.9t-23-41l33.9-9.1q2,13.6,10.2,22.2a29.3,29.3,0,0,0,22.2,9.5,32.8,32.8,0,0,0,23.6-9.7,31.1,31.1,0,0,0,10-23.2q0-20.7-25.8-32.7-24.1-10.8-39.1-18.6t-21.5-12.1q-12.7-8.8-12.7-44.6,0-28,20.2-47.6t48.3-19.7q25.2,0,43,16.3t22.9,41.2Z" transform="translate(-246 -291.7)"/><path class="cls-1" d="M742.2,446q0,38-27.3,65.2t-65.4,26.9q-38.3,0-65.4-26.9T557,446q0-38.1,27.1-65.2t65.4-27.3q38.1,0,65.4,27.3T742.2,446Zm-34.7,0q0-23.5-17.1-40.7t-40.8-17.1q-23.7,0-40.8,17.1T591.7,446a57.7,57.7,0,0,0,98.6,40.8Q707.5,469.7,707.5,446Z" transform="translate(-246 -291.7)"/><path class="cls-1" d="M972,535V425.5a39.1,39.1,0,0,0-9.9-26.3,31,31,0,0,0-24.6-11.4q-16,0-25.4,10.5T903,425.5V535H868V425.5q0-16.8-9.3-27.1t-25.1-10.5a31.3,31.3,0,0,0-24.8,11.4,39,39,0,0,0-9.8,26.3V535H764V425.5a72.2,72.2,0,0,1,20-50.8q20-21.5,49.5-21.5,31.7,0,52,23,20-23,52-23,29.3,0,49.3,21.5t20.2,50.8V535Z" transform="translate(-246 -291.7)"/><path class="cls-1" d="M1213.5,446q0,38-27.3,65.2t-65.4,26.9q-38.3,0-65.4-26.9T1028.3,446q0-38.1,27.1-65.2t65.4-27.3q38.1,0,65.4,27.3T1213.5,446Zm-34.7,0q0-23.5-17.1-40.7t-40.8-17.1q-23.7,0-40.8,17.1T1063,446a57.7,57.7,0,0,0,98.6,40.8Q1178.8,469.7,1178.8,446Z" transform="translate(-246 -291.7)"/><path class="cls-1" d="M1349.3,485.3a50.2,50.2,0,0,1-15.9,37.4q-15.9,15.4-37.8,15.4a51.6,51.6,0,0,1-33.9-12,55.3,55.3,0,0,1-18.8-31.5l33.5-9q3.4,18.1,19.1,18.1a19.3,19.3,0,0,0,13.4-5.4,17.4,17.4,0,0,0,5.9-13q0-12.4-18.8-20.5-15.1-6.8-23.8-11t-11.1-6.1q-18.8-13.9-18.8-40.5,0-21.7,15.8-37.8t38-15.9a50.8,50.8,0,0,1,33.9,12.4q13.9,12,18.5,31.3l-33.9,8.8q-3.9-17.8-18.5-17.8a18.4,18.4,0,0,0-13.4,5.8,18.2,18.2,0,0,0-5.8,13.2q0,12.2,18.8,20.5,14.9,6.4,23.5,10.8a90.1,90.1,0,0,1,11.3,6.4Q1349.3,459.1,1349.3,485.3Z" transform="translate(-246 -291.7)"/><path class="cls-2" d="M1627.8,529.8V508.3q-25,24.4-59.1,24.4-36.2,0-61.7-27.4T1481.7,440q0-38.3,26.3-65.6t63.5-27.4q37,0,63.5,27.4t26.5,65.6v89.8Zm.7-89.8q0-23.7-16.6-40.9t-39.7-17.2q-23.1,0-39.7,17.2A56.8,56.8,0,0,0,1516,440q0,24,16.5,41.1t39.7,17q23.2,0,39.7-17A57,57,0,0,0,1628.5,440Z" transform="translate(-246 -291.7)"/><path class="cls-3" d="M1866.9,439.9q0,38.2-26.5,65.6t-63.3,27.1q-37.2,0-63.5-27.1t-26.3-65.6V291.7H1721v79.9q24.8-24.7,58.9-24.7,36,0,61.5,27.6T1866.9,439.9Zm-34.1.1q0-23.7-16.6-40.9t-39.5-17.2q-23.1,0-39.7,17.2a56.8,56.8,0,0,0-16.5,40.9q0,24,16.5,41.1t39.7,17q23,0,39.5-17A57,57,0,0,0,1832.8,440Z" transform="translate(-246 -291.7)"/><path class="cls-2" d="M2042.8,504.7q-25.7,27.8-63.7,27.8t-63.9-26.8q-26.3-26.8-26.3-65.6t26.2-65.9q26.2-27.4,63.6-27.4a85.5,85.5,0,0,1,49.9,15.7q22.6,15.7,33.8,42.1l-119,80.1q16,13.3,35.9,13.3,24,0,39.7-17.7t16-42.8h34.1Q2068.7,476.8,2042.8,504.7Zm-64.2-122.8q-23.4,0-39.7,17.2t-16.3,41.2a55.6,55.6,0,0,0,2.3,15l89.6-60.1Q1998.4,381.9,1978.6,381.9Z" transform="translate(-246 -291.7)"/><path class="cls-2" d="M2099.8,531.8V293.7h33.7V531.8Z" transform="translate(-246 -291.7)"/><path class="cls-4" d="M1451.8,496.9q-20.1,0-27.2-7.8t-7.1-27.5V293.7h-33.7V478.6a52.5,52.5,0,0,0,14.9,37.6q14.9,15.7,35.9,15.6h34.5V496.9Z" transform="translate(-246 -291.7)"/><path class="cls-2" d="M261.5,531l7.2-54H246V460h26.5l5.5-40H253V404h26.4l7.2-53h16.1l-6.9,53h28.9l7.2-53h16.4l-6.9,53H364v16H336.3l-5.5,40H357v17H330.7l-7.2,54H306.9l7.2-54H285.3l-7.2,54ZM317,460l5.2-40H293.6l-5.2,40Z" transform="translate(-246 -291.7)"/></svg>