<svg id="Capa_1" data-name="Capa 1" xmlns="http://www.w3.org/2000/svg" viewBox="0 0 750.2 356.3"><defs><style>.cls-1{fill:#fff;}.cls-2{fill:#fdfdfd;}.cls-3{fill:none;stroke:#fff;stroke-miterlimit:10;stroke-width:3px;}.cls-4{fill:#fffffe;}.cls-5{fill:#d11918;}</style></defs><title>logoLn</title><path class="cls-1" d="M292.8,354.8V333.3q-25,24.4-59.1,24.4-36.2,0-61.7-27.4T146.7,265q0-38.3,26.3-65.6t63.5-27.4q37,0,63.5,27.4T326.5,265v89.8Zm.7-89.8q0-23.7-16.6-40.9t-39.7-17.2q-23.1,0-39.7,17.2A56.8,56.8,0,0,0,181,265q0,24,16.5,41.1t39.7,17q23.2,0,39.7-17A57,57,0,0,0,293.5,265Z" transform="translate(-48.3 -116.7)"/><path class="cls-2" d="M531.9,264.9q0,38.2-26.5,65.6t-63.3,27.1q-37.2,0-63.5-27.1t-26.3-65.6V116.7H386v79.9q24.8-24.7,58.9-24.7,36,0,61.5,27.6T531.9,264.9Zm-34.1.1q0-23.7-16.6-40.9t-39.5-17.2q-23.1,0-39.7,17.2A56.8,56.8,0,0,0,385.5,265q0,24,16.5,41.1t39.7,17q23,0,39.5-17A57,57,0,0,0,497.8,265Z" transform="translate(-48.3 -116.7)"/><path class="cls-1" d="M707.8,329.7q-25.7,27.8-63.7,27.8t-63.9-26.8q-26.3-26.8-26.3-65.6t26.2-65.9q26.2-27.4,63.6-27.4a85.5,85.5,0,0,1,49.9,15.7q22.6,15.7,33.8,42.1l-119,80.1q16,13.3,35.9,13.3,24,0,39.7-17.7t16-42.8h34.1Q733.7,301.8,707.8,329.7ZM643.6,206.9q-23.4,0-39.7,17.2t-16.3,41.2a55.6,55.6,0,0,0,2.3,15l89.6-60.1Q663.4,206.9,643.6,206.9Z" transform="translate(-48.3 -116.7)"/><path class="cls-1" d="M764.8,356.8V118.7h33.7V356.8Z" transform="translate(-48.3 -116.7)"/><line class="cls-3" y1="277.6" x2="750.1" y2="277.6"/><path class="cls-4" d="M116.8,321.9q-20.1,0-27.2-7.8t-7.1-27.5V118.7H48.8V303.6a52.5,52.5,0,0,0,14.9,37.6q14.9,15.7,35.9,15.6h34.5V321.9Z" transform="translate(-48.3 -116.7)"/><path class="cls-5" d="M89.7,471.7H48.9V429.2H89.7v4.6H58v12.6H89.7v4.4H58v16.3H89.7Z" transform="translate(-48.3 -116.7)"/><path class="cls-5" d="M219.1,429.2,187.9,473h-2.7l-31-43.8h10.3l22.4,34.8,22.2-34.8Z" transform="translate(-48.3 -116.7)"/><path class="cls-5" d="M324.7,471.7H284V429.2h40.7v4.6H293v12.6h31.7v4.4H293v16.3h31.7Z" transform="translate(-48.3 -116.7)"/><path class="cls-5" d="M456.4,472.6h-1.8l-54.7-34.1v33.1h-8.4V428.2h2.1l54.2,34.1V429.2h8.6Z" transform="translate(-48.3 -116.7)"/><path class="cls-5" d="M566.2,433.7H544.6v38h-9.3v-38H513.7v-4.5h52.5Z" transform="translate(-48.3 -116.7)"/><path class="cls-5" d="M699.1,450.1q0,9.4-11.7,16t-28.3,6.6q-16.8,0-28.9-6.4t-12.1-15.7q0-9.4,11.7-16t28.3-6.6q16.8,0,28.9,6.4T699.1,450.1Zm-9.3-.1q0-7.3-9.3-12.3t-22.4-5.1q-12.9,0-21.8,5.3t-8.9,12.7q0,7.3,9.3,12.3t22.4,5q12.9,0,21.8-5.3T689.8,450Z" transform="translate(-48.3 -116.7)"/><path class="cls-5" d="M797.1,436.6l-8,2.1q-1.1-2.6-5.4-4.3a25.8,25.8,0,0,0-9.3-1.6,23.5,23.5,0,0,0-6.6.8,10.4,10.4,0,0,0-4.7,2.7,5.1,5.1,0,0,0-1.2,3.2q0,3.8,6.4,5.8l19.2,4a19.2,19.2,0,0,1,8.1,4.5,8.5,8.5,0,0,1,2.8,6,8.4,8.4,0,0,1-2,5.3,16.8,16.8,0,0,1-5.9,4.5,42.9,42.9,0,0,1-15.9,2.8,44.8,44.8,0,0,1-14.5-2.2,17,17,0,0,1-5.4-3.4,18.8,18.8,0,0,1-3.4-4.8l8.2-2.4q0,3.6,4.6,6a22.7,22.7,0,0,0,10.7,2.4,27.1,27.1,0,0,0,4.8-.4,21.6,21.6,0,0,0,4.7-1.4,9.4,9.4,0,0,0,3.6-2.6,5.4,5.4,0,0,0,1.4-3.5,4.4,4.4,0,0,0-2.2-4.1,21.3,21.3,0,0,0-3.4-1.8l-5.1-1.4-13-2.6a27.1,27.1,0,0,1-9.3-4.2q-3.5-2.7-3.5-6a12.1,12.1,0,0,1,.8-3.1q.8-2.3,4.8-4.8a21,21,0,0,1,8.9-3.1,77,77,0,0,1,8.6-.5h2.5l4.7.5a25.6,25.6,0,0,1,8.1,2.5A13.1,13.1,0,0,1,797.1,436.6Z" transform="translate(-48.3 -116.7)"/></svg>